# xmcd
#
# Track frame offsets:
# 150
# 14648
# 20953
# 32813
# 68933
# 100320
# 122090
# 160983
# 177108
# 196243
#
# Disc length: 2946 seconds
#
#
# Revision: 0
# Processed by: cddbd v1.5.1PL0 Copyright (c) Steve Scherf et al.
# Submitted via: FreeRIP 2.941 
#
DISCID=8a0b800a
DTITLE=King George - Live at Kulturen, Lund
DYEAR=1995
DGENRE=Blues
TTITLE0=Break Away
TTITLE1=Intro of the Night
TTITLE2=Room Full of Dreams
TTITLE3=Small Town
TTITLE4=Something About Anything
TTITLE5=Voo-doo Man
TTITLE6=Hell Fired Red
TTITLE7=Sad With Whiskey
TTITLE8=Mud Slide
TTITLE9=Fee-Fon
EXTD=
EXTT0=
EXTT1=
EXTT2=
EXTT3=
EXTT4=
EXTT5=
EXTT6=
EXTT7=
EXTT8=
EXTT9=
PLAYORDER=
